<svg width="32" height="32" viewBox="0 0 32 32" fill="none" xmlns="http://www.w3.org/2000/svg">
  <!-- LinkedGoals Favicon - People Network Icon -->
  <g transform="translate(4, 4)">
    <!-- Main person icon -->
    <circle cx="12" cy="8" r="3" fill="#0077b5"/>
    <path d="M12 14c-2.5 0-4.5 2-4.5 4.5v1.5h9v-1.5c0-2.5-2-4.5-4.5-4.5z" fill="#0077b5"/>
    
    <!-- Connected person 1 -->
    <circle cx="5" cy="16" r="2" fill="#0077b5" opacity="0.8"/>
    <path d="M5 20c-1.5 0-3 1.5-3 3v1h6v-1c0-1.5-1.5-3-3-3z" fill="#0077b5" opacity="0.8"/>
    
    <!-- Connected person 2 -->
    <circle cx="19" cy="16" r="2" fill="#0077b5" opacity="0.8"/>
    <path d="M19 20c-1.5 0-3 1.5-3 3v1h6v-1c0-1.5-1.5-3-3-3z" fill="#0077b5" opacity="0.8"/>
    
    <!-- Connection lines -->
    <path d="M12 14L5 16M12 14L19 16" stroke="#0077b5" stroke-width="1" opacity="0.6"/>
  </g>
</svg> 