<svg width="200" height="50" viewBox="0 0 200 50" fill="none" xmlns="http://www.w3.org/2000/svg">
  <!-- People Network Icon -->
  <g transform="translate(8, 12)">
    <!-- Main person icon -->
    <circle cx="12" cy="8" r="4" fill="#0077b5"/>
    <path d="M12 16c-3.31 0-6 2.69-6 6v2h12v-2c0-3.31-2.69-6-6-6z" fill="#0077b5"/>
    
    <!-- Connected person 1 -->
    <circle cx="4" cy="20" r="3" fill="#0077b5" opacity="0.7"/>
    <path d="M4 26c-2.48 0-4.5 2.02-4.5 4.5v1.5h9v-1.5c0-2.48-2.02-4.5-4.5-4.5z" fill="#0077b5" opacity="0.7"/>
    
    <!-- Connected person 2 -->
    <circle cx="20" cy="20" r="3" fill="#0077b5" opacity="0.7"/>
    <path d="M20 26c-2.48 0-4.5 2.02-4.5 4.5v1.5h9v-1.5c0-2.48-2.02-4.5-4.5-4.5z" fill="#0077b5" opacity="0.7"/>
    
    <!-- Connection lines -->
    <path d="M12 16L4 20M12 16L20 20" stroke="#0077b5" stroke-width="1.5" opacity="0.5"/>
  </g>
  
  <!-- LinkedGoals Text -->
  <text x="50" y="32" font-family="Inter, system-ui, sans-serif" font-size="18" font-weight="600" fill="#0077b5">
    LinkedGoals
  </text>
</svg> 